<?xml version="1.0" encoding="UTF-8" standalone="no"?>
<!DOCTYPE svg PUBLIC "-//W3C//DTD SVG 1.1//EN"
 "http://www.w3.org/Graphics/SVG/1.1/DTD/svg11.dtd">
<!-- Generated by graphviz version 2.28.0 (20121121.0639)
 -->
<!-- Title: G Pages: 1 -->
<svg width="674pt" height="434pt"
 viewBox="0.00 0.00 674.01 434.00" xmlns="http://www.w3.org/2000/svg" xmlns:xlink="http://www.w3.org/1999/xlink">
<g id="graph1" class="graph" transform="scale(1 1) rotate(0) translate(4 430)">
<title>G</title>
<polygon fill="white" stroke="white" points="-4,5 -4,-430 671.008,-430 671.008,5 -4,5"/>
<g id="graph2" class="cluster"><title>cluster_market_data</title>
<polygon fill="none" stroke="#909090" points="380.008,-172 380.008,-418 514.008,-418 514.008,-172 380.008,-172"/>
<text text-anchor="middle" x="447.008" y="-400" font-family="Times,serif" font-size="14.00">market data</text>
</g>
<g id="graph3" class="cluster"><title>cluster_offwire</title>
<polygon fill="none" stroke="#909090" points="10.0083,-8 10.0083,-248 150.008,-248 150.008,-8 10.0083,-8"/>
<text text-anchor="middle" x="80.0083" y="-230" font-family="Times,serif" font-size="14.00">offwire</text>
</g>
<g id="graph4" class="cluster"><title>cluster_onwire</title>
<polygon fill="none" stroke="#909090" points="158.008,-172 158.008,-418 340.008,-418 340.008,-172 158.008,-172"/>
<text text-anchor="middle" x="249.008" y="-400" font-family="Times,serif" font-size="14.00">onwire</text>
</g>
<g id="graph5" class="cluster"><title>cluster_broker</title>
<polygon fill="none" stroke="#909090" points="522.008,-172 522.008,-418 658.008,-418 658.008,-172 522.008,-172"/>
<text text-anchor="middle" x="590.008" y="-400" font-family="Times,serif" font-size="14.00">broker data</text>
</g>
<!-- exchange -->
<g id="node2" class="node"><title>exchange</title>
<polygon fill="#ff1111" fill-opacity="0.066667" stroke="#ff1111" stroke-opacity="0.066667" points="452.04,-350.049 455.371,-350.148 458.668,-350.295 461.917,-350.491 465.104,-350.735 468.218,-351.027 471.246,-351.364 474.176,-351.748 476.997,-352.176 479.698,-352.647 482.27,-353.161 484.704,-353.715 486.991,-354.308 489.125,-354.939 491.099,-355.605 492.908,-356.306 494.547,-357.039 496.012,-357.801 497.302,-358.592 498.414,-359.408 499.348,-360.248 500.104,-361.109 500.683,-361.989 501.087,-362.886 501.318,-363.797 501.38,-364.719 501.278,-365.65 501.015,-366.587 500.597,-367.529 500.029,-368.471 499.319,-369.413 498.473,-370.35 497.496,-371.281 496.398,-372.203 495.184,-373.114 493.862,-374.011 492.44,-374.891 490.925,-375.752 489.325,-376.592 487.645,-377.408 485.894,-378.199 484.078,-378.961 482.203,-379.694 480.276,-380.395 478.302,-381.061 476.286,-381.692 474.235,-382.285 472.152,-382.839 470.041,-383.353 467.907,-383.824 465.753,-384.252 463.582,-384.636 461.398,-384.973 459.201,-385.265 456.996,-385.509 454.784,-385.705 452.566,-385.852 450.344,-385.951 448.121,-386 445.896,-386 443.672,-385.951 441.451,-385.852 439.233,-385.705 437.021,-385.509 434.815,-385.265 432.619,-384.973 430.434,-384.636 428.264,-384.252 426.11,-383.824 423.976,-383.353 421.865,-382.839 419.782,-382.285 417.73,-381.692 415.715,-381.061 413.741,-380.395 411.814,-379.694 409.939,-378.961 408.123,-378.199 406.372,-377.408 404.692,-376.592 403.091,-375.752 401.576,-374.891 400.154,-374.011 398.833,-373.114 397.619,-372.203 396.52,-371.281 395.544,-370.35 394.698,-369.413 393.987,-368.471 393.42,-367.529 393.002,-366.587 392.739,-365.65 392.636,-364.719 392.699,-363.797 392.93,-362.886 393.334,-361.989 393.913,-361.109 394.668,-360.248 395.602,-359.408 396.715,-358.592 398.004,-357.801 399.47,-357.039 401.109,-356.306 402.918,-355.605 404.892,-354.939 407.026,-354.308 409.313,-353.715 411.747,-353.161 414.319,-352.647 417.02,-352.176 419.841,-351.748 422.771,-351.364 425.798,-351.027 428.912,-350.735 432.1,-350.491 435.349,-350.295 438.646,-350.148 441.977,-350.049 445.329,-350 448.688,-350 452.04,-350.049"/>
<text text-anchor="middle" x="447.008" y="-362.4" font-family="Times,serif" font-size="14.00" fill="#101010">exchanges</text>
</g>
<!-- aggregator -->
<g id="node3" class="node"><title>aggregator</title>
<polygon fill="#cc11cc" fill-opacity="0.133333" stroke="#cc11cc" stroke-opacity="0.133333" points="452.403,-276.049 455.975,-276.148 459.51,-276.295 462.993,-276.491 466.411,-276.735 469.75,-277.027 472.996,-277.364 476.138,-277.748 479.162,-278.176 482.059,-278.647 484.816,-279.161 487.426,-279.715 489.879,-280.308 492.167,-280.939 494.283,-281.605 496.223,-282.306 497.98,-283.039 499.551,-283.801 500.934,-284.592 502.127,-285.408 503.128,-286.248 503.939,-287.109 504.559,-287.989 504.992,-288.886 505.24,-289.797 505.307,-290.719 505.197,-291.65 504.915,-292.587 504.467,-293.529 503.858,-294.471 503.097,-295.413 502.189,-296.35 501.142,-297.281 499.965,-298.203 498.663,-299.114 497.246,-300.011 495.721,-300.891 494.097,-301.752 492.381,-302.592 490.58,-303.408 488.702,-304.199 486.755,-304.961 484.745,-305.694 482.678,-306.395 480.562,-307.061 478.401,-307.692 476.201,-308.285 473.967,-308.839 471.704,-309.353 469.416,-309.824 467.107,-310.252 464.779,-310.636 462.437,-310.973 460.082,-311.265 457.717,-311.509 455.345,-311.705 452.967,-311.852 450.585,-311.951 448.201,-312 445.816,-312 443.431,-311.951 441.05,-311.852 438.672,-311.705 436.299,-311.509 433.935,-311.265 431.58,-310.973 429.237,-310.636 426.91,-310.252 424.6,-309.824 422.312,-309.353 420.049,-308.839 417.816,-308.285 415.616,-307.692 413.455,-307.061 411.338,-306.395 409.272,-305.694 407.262,-304.961 405.314,-304.199 403.437,-303.408 401.636,-302.592 399.92,-301.752 398.295,-300.891 396.771,-300.011 395.354,-299.114 394.052,-298.203 392.874,-297.281 391.828,-296.35 390.92,-295.413 390.158,-294.471 389.55,-293.529 389.102,-292.587 388.82,-291.65 388.71,-290.719 388.776,-289.797 389.024,-288.886 389.457,-287.989 390.078,-287.109 390.889,-286.248 391.89,-285.408 393.083,-284.592 394.465,-283.801 396.037,-283.039 397.794,-282.306 399.733,-281.605 401.85,-280.939 404.138,-280.308 406.591,-279.715 409.2,-279.161 411.958,-278.647 414.854,-278.176 417.879,-277.748 421.02,-277.364 424.267,-277.027 427.606,-276.735 431.024,-276.491 434.507,-276.295 438.042,-276.148 441.614,-276.049 445.208,-276 448.809,-276 452.403,-276.049"/>
<text text-anchor="middle" x="447.008" y="-288.4" font-family="Times,serif" font-size="14.00" fill="#101010">data stream</text>
</g>
<!-- exchange&#45;&gt;aggregator -->
<g id="edge3" class="edge"><title>exchange&#45;&gt;aggregator</title>
<path fill="none" stroke="black" d="M447.008,-349.937C447.008,-338.626 447.008,-323.828 447.008,-312.441"/>
</g>
<!-- localport -->
<g id="node4" class="node"><title>localport</title>
<polygon fill="#1f3950" stroke="#1f3950" points="461.45,-216 388.567,-216 388.567,-180 461.45,-180 461.45,-216"/>
<text text-anchor="middle" x="425.008" y="-192.4" font-family="Times,serif" font-size="14.00" fill="#eeeeee">local node</text>
</g>
<!-- aggregator&#45;&gt;localport -->
<g id="edge5" class="edge"><title>aggregator&#45;&gt;localport</title>
<path fill="none" stroke="black" d="M440.658,-265.867C437.726,-253.339 434.254,-238.503 431.326,-225.992"/>
<polygon fill="black" stroke="black" points="437.286,-266.82 442.973,-275.759 444.102,-265.224 437.286,-266.82"/>
<polygon fill="black" stroke="black" points="434.705,-225.071 429.018,-216.132 427.889,-226.666 434.705,-225.071"/>
</g>
<!-- observer -->
<g id="node9" class="node"><title>observer</title>
<polygon fill="#1f3950" stroke="#1f3950" points="142.159,-142 77.858,-142 77.858,-106 142.159,-106 142.159,-142"/>
<text text-anchor="middle" x="110.008" y="-118.4" font-family="Times,serif" font-size="14.00" fill="#eeeeee">observer</text>
</g>
<!-- localport&#45;&gt;observer -->
<g id="edge26" class="edge"><title>localport&#45;&gt;observer</title>
<path fill="none" stroke="#aaaaaa" stroke-dasharray="1,5" d="M388.537,-184.884C374.682,-180.509 358.7,-175.733 344.008,-172 277.736,-155.163 199.671,-140.503 152.555,-132.21"/>
<polygon fill="#aaaaaa" stroke="#aaaaaa" points="152.867,-128.711 142.414,-130.439 151.663,-135.607 152.867,-128.711"/>
</g>
<!-- disruptor -->
<g id="node13" class="node"><title>disruptor</title>
<polygon fill="#1f3950" stroke="#1f3950" points="332.022,-386 247.995,-386 247.995,-350 332.022,-350 332.022,-386"/>
<text text-anchor="middle" x="290.008" y="-362.4" font-family="Times,serif" font-size="14.00" fill="#eeeeee">event server</text>
</g>
<!-- localport&#45;&gt;disruptor -->
<g id="edge30" class="edge"><title>localport&#45;&gt;disruptor</title>
<path fill="none" stroke="#0080ff" d="M413.043,-216.286C397.231,-238.842 368.196,-279.29 341.008,-312 332.555,-322.171 322.781,-332.928 314.066,-342.206"/>
<polygon fill="#0080ff" stroke="#0080ff" points="311.39,-339.942 307.047,-349.606 316.468,-344.76 311.39,-339.942"/>
</g>
<!-- offwirealgo -->
<g id="node8" class="node"><title>offwirealgo</title>
<polygon fill="#1f3950" stroke="#1f3950" points="142.125,-216 61.8918,-216 61.8918,-180 142.125,-180 142.125,-216"/>
<text text-anchor="middle" x="102.008" y="-192.4" font-family="Times,serif" font-size="14.00" fill="#eeeeee">offline algo</text>
</g>
<!-- offwirealgo&#45;&gt;observer -->
<g id="edge46" class="edge"><title>offwirealgo&#45;&gt;observer</title>
<path fill="none" stroke="#aaaaaa" stroke-dasharray="1,5" d="M103.904,-179.937C104.817,-171.719 105.935,-161.66 106.963,-152.406"/>
<polygon fill="#aaaaaa" stroke="#aaaaaa" points="110.445,-152.766 108.07,-142.441 103.487,-151.993 110.445,-152.766"/>
</g>
<!-- databases -->
<g id="node10" class="node"><title>databases</title>
<polygon fill="#1f3950" stroke="#1f3950" points="103.243,-52 34.7741,-52 34.7741,-16 103.243,-16 103.243,-52"/>
<text text-anchor="middle" x="69.0083" y="-28.4" font-family="Times,serif" font-size="14.00" fill="#eeeeee">databases</text>
</g>
<!-- observer&#45;&gt;databases -->
<g id="edge8" class="edge"><title>observer&#45;&gt;databases</title>
<path fill="none" stroke="red" d="M101.908,-105.614C96.03,-92.9977 87.9733,-75.7052 81.304,-61.3907"/>
<polygon fill="red" stroke="red" points="84.3481,-59.6367 76.9523,-52.0504 78.003,-62.593 84.3481,-59.6367"/>
<text text-anchor="middle" x="108.391" y="-73.4" font-family="Times,serif" font-size="14.00" fill="red">write</text>
</g>
<!-- databases&#45;&gt;offwirealgo -->
<g id="edge40" class="edge"><title>databases&#45;&gt;offwirealgo</title>
<path fill="none" stroke="red" d="M58.7903,-52.2655C47.3833,-73.9191 32.1037,-111.86 44.9185,-142 50.0175,-153.993 59.1547,-164.638 68.6454,-173.292"/>
<polygon fill="red" stroke="red" points="66.3838,-175.963 76.2621,-179.794 70.9283,-170.639 66.3838,-175.963"/>
<text text-anchor="middle" x="57.0533" y="-118.4" font-family="Times,serif" font-size="14.00" fill="red">read</text>
</g>
<!-- eventalgo -->
<g id="node14" class="node"><title>eventalgo</title>
<polygon fill="#1f3950" stroke="#1f3950" points="270.008,-216 216.008,-216 216.008,-180 270.008,-180 270.008,-216"/>
<text text-anchor="middle" x="243.008" y="-192.4" font-family="Times,serif" font-size="14.00" fill="#eeeeee">algo</text>
</g>
<!-- disruptor&#45;&gt;eventalgo -->
<g id="edge15" class="edge"><title>disruptor&#45;&gt;eventalgo</title>
<path fill="none" stroke="black" d="M275.195,-349.915C267.174,-339.636 257.924,-325.886 253.008,-312 243.08,-283.952 241.387,-249.655 241.667,-226.252"/>
<polygon fill="black" stroke="black" points="245.172,-226.106 241.924,-216.021 238.174,-225.93 245.172,-226.106"/>
</g>
<!-- controller -->
<g id="node15" class="node"><title>controller</title>
<polygon fill="#1f3950" stroke="#1f3950" points="332.325,-312 261.692,-312 261.692,-276 332.325,-276 332.325,-312"/>
<text text-anchor="middle" x="297.008" y="-288.4" font-family="Times,serif" font-size="14.00" fill="#eeeeee">controller</text>
</g>
<!-- disruptor&#45;&gt;controller -->
<g id="edge17" class="edge"><title>disruptor&#45;&gt;controller</title>
<path fill="none" stroke="black" d="M285.827,-349.937C285.754,-341.719 286.487,-331.66 287.768,-322.406"/>
<polygon fill="black" stroke="black" points="291.237,-322.881 289.433,-312.441 284.333,-321.727 291.237,-322.881"/>
</g>
<!-- listener -->
<g id="node18" class="node"><title>listener</title>
<polygon fill="#1f3950" stroke="#1f3950" points="223.413,-312 166.604,-312 166.604,-276 223.413,-276 223.413,-312"/>
<text text-anchor="middle" x="195.008" y="-288.4" font-family="Times,serif" font-size="14.00" fill="#eeeeee">listener</text>
</g>
<!-- disruptor&#45;&gt;listener -->
<g id="edge13" class="edge"><title>disruptor&#45;&gt;listener</title>
<path fill="none" stroke="black" d="M263.398,-349.965C255.119,-344.434 246.056,-338.137 238.008,-332 232.536,-327.827 226.848,-323.176 221.469,-318.618"/>
<polygon fill="black" stroke="black" points="223.732,-315.948 213.87,-312.074 219.163,-321.252 223.732,-315.948"/>
</g>
<!-- eventalgo&#45;&gt;observer -->
<g id="edge44" class="edge"><title>eventalgo&#45;&gt;observer</title>
<path fill="none" stroke="#aaaaaa" stroke-dasharray="1,5" d="M215.773,-182.256C197.104,-172.15 172.003,-158.561 150.94,-147.158"/>
<polygon fill="#aaaaaa" stroke="#aaaaaa" points="152.348,-143.941 141.888,-142.258 149.015,-150.097 152.348,-143.941"/>
</g>
<!-- controller&#45;&gt;localport -->
<g id="edge28" class="edge"><title>controller&#45;&gt;localport</title>
<path fill="none" stroke="#aaaaaa" d="M301.847,-275.904C304.642,-268.836 308.856,-261.115 315.008,-256 325.29,-247.452 331.728,-253.288 344.008,-248 360.635,-240.841 377.948,-230.772 392.279,-221.622"/>
<polygon fill="#aaaaaa" stroke="#aaaaaa" points="394.318,-224.471 400.784,-216.078 390.496,-218.607 394.318,-224.471"/>
</g>
<!-- controller&#45;&gt;offwirealgo -->
<g id="edge38" class="edge"><title>controller&#45;&gt;offwirealgo</title>
<path fill="none" stroke="#aaaaaa" d="M251.578,-281.09C216.318,-271.408 170.714,-257.795 154.008,-248 142.918,-241.498 132.285,-232.229 123.556,-223.5"/>
<polygon fill="#aaaaaa" stroke="#aaaaaa" points="251.112,-284.59 261.68,-283.835 252.948,-277.835 251.112,-284.59"/>
<polygon fill="#aaaaaa" stroke="#aaaaaa" points="125.86,-220.845 116.412,-216.051 120.807,-225.691 125.86,-220.845"/>
</g>
<!-- controller&#45;&gt;observer -->
<g id="edge34" class="edge"><title>controller&#45;&gt;observer</title>
<path fill="none" stroke="#aaaaaa" stroke-dasharray="1,5" d="M261.739,-283.086C252.141,-280.577 241.714,-278.023 232.008,-276 192.594,-267.785 79.1854,-278.59 53.0083,-248 31.0469,-222.336 38.6018,-202.551 53.0083,-172 57.2266,-163.055 64.0751,-155.234 71.5866,-148.672"/>
<polygon fill="#aaaaaa" stroke="#aaaaaa" points="74.2597,-151.018 79.9046,-142.052 69.9006,-145.541 74.2597,-151.018"/>
</g>
<!-- controller&#45;&gt;disruptor -->
<g id="edge19" class="edge"><title>controller&#45;&gt;disruptor</title>
<path fill="none" stroke="#0080ff" d="M301.192,-312.441C301.241,-320.714 300.487,-330.788 299.19,-340.017"/>
<polygon fill="#0080ff" stroke="#0080ff" points="295.729,-339.492 297.507,-349.937 302.63,-340.663 295.729,-339.492"/>
</g>
<!-- controller&#45;&gt;eventalgo -->
<g id="edge11" class="edge"><title>controller&#45;&gt;eventalgo</title>
<path fill="none" stroke="#aaaaaa" d="M281.946,-266.78C274.461,-253.751 265.444,-238.055 257.973,-225.049"/>
<polygon fill="#aaaaaa" stroke="#aaaaaa" points="279.088,-268.831 287.104,-275.759 285.157,-265.344 279.088,-268.831"/>
<polygon fill="#aaaaaa" stroke="#aaaaaa" points="260.866,-223.059 252.85,-216.132 254.796,-226.546 260.866,-223.059"/>
</g>
<!-- trader -->
<g id="node27" class="node"><title>trader</title>
<polygon fill="#1f3950" stroke="#1f3950" points="584.008,-216 530.008,-216 530.008,-180 584.008,-180 584.008,-216"/>
<text text-anchor="middle" x="557.008" y="-192.4" font-family="Times,serif" font-size="14.00" fill="#eeeeee">trader</text>
</g>
<!-- controller&#45;&gt;trader -->
<g id="edge36" class="edge"><title>controller&#45;&gt;trader</title>
<path fill="none" stroke="#aaaaaa" d="M342.255,-283.123C353.29,-280.753 365.068,-278.256 376.008,-276 439.01,-263.011 463.055,-281.437 518.008,-248 527.482,-242.235 535.598,-233.286 541.934,-224.604"/>
<polygon fill="#aaaaaa" stroke="#aaaaaa" points="341.412,-279.724 332.374,-285.253 342.887,-286.567 341.412,-279.724"/>
<polygon fill="#aaaaaa" stroke="#aaaaaa" points="544.956,-226.383 547.661,-216.14 539.158,-222.461 544.956,-226.383"/>
</g>
<!-- listener&#45;&gt;observer -->
<g id="edge32" class="edge"><title>listener&#45;&gt;observer</title>
<path fill="none" stroke="#aaaaaa" stroke-dasharray="1,5" d="M166.648,-291.555C121.928,-288.617 38.2275,-280.224 20.0083,-258 -7.60539,-224.317 -5.35912,-195.406 20.0083,-160 32.7426,-142.227 46.1808,-148.902 68.1972,-143.194"/>
<polygon fill="#aaaaaa" stroke="#aaaaaa" points="69.4008,-146.482 77.8064,-140.033 67.2135,-139.833 69.4008,-146.482"/>
</g>
<!-- broker -->
<g id="node23" class="node"><title>broker</title>
<polygon fill="#ff1111" fill-opacity="0.066667" stroke="#ff1111" stroke-opacity="0.066667" points="593.931,-350.049 596.528,-350.148 599.099,-350.295 601.632,-350.491 604.117,-350.735 606.545,-351.027 608.906,-351.364 611.19,-351.748 613.389,-352.176 615.496,-352.647 617.501,-353.161 619.398,-353.715 621.182,-354.308 622.846,-354.939 624.385,-355.605 625.795,-356.306 627.073,-357.039 628.215,-357.801 629.221,-358.592 630.088,-359.408 630.816,-360.248 631.406,-361.109 631.857,-361.989 632.172,-362.886 632.352,-363.797 632.401,-364.719 632.321,-365.65 632.116,-366.587 631.79,-367.529 631.347,-368.471 630.794,-369.413 630.134,-370.35 629.372,-371.281 628.516,-372.203 627.57,-373.114 626.539,-374.011 625.431,-374.891 624.249,-375.752 623.001,-376.592 621.692,-377.408 620.326,-378.199 618.91,-378.961 617.449,-379.694 615.946,-380.395 614.407,-381.061 612.836,-381.692 611.236,-382.285 609.612,-382.839 607.966,-383.353 606.302,-383.824 604.623,-384.252 602.931,-384.636 601.227,-384.973 599.515,-385.265 597.796,-385.509 596.071,-385.705 594.341,-385.852 592.609,-385.951 590.876,-386 589.141,-386 587.407,-385.951 585.675,-385.852 583.946,-385.705 582.221,-385.509 580.502,-385.265 578.789,-384.973 577.086,-384.636 575.394,-384.252 573.714,-383.824 572.05,-383.353 570.405,-382.839 568.781,-382.285 567.181,-381.692 565.61,-381.061 564.071,-380.395 562.568,-379.694 561.106,-378.961 559.69,-378.199 558.325,-377.408 557.015,-376.592 555.767,-375.752 554.586,-374.891 553.477,-374.011 552.447,-373.114 551.501,-372.203 550.644,-371.281 549.883,-370.35 549.223,-369.413 548.669,-368.471 548.227,-367.529 547.901,-366.587 547.696,-365.65 547.616,-364.719 547.664,-363.797 547.845,-362.886 548.16,-361.989 548.611,-361.109 549.2,-360.248 549.929,-359.408 550.796,-358.592 551.801,-357.801 552.944,-357.039 554.222,-356.306 555.632,-355.605 557.171,-354.939 558.835,-354.308 560.618,-353.715 562.516,-353.161 564.521,-352.647 566.627,-352.176 568.827,-351.748 571.111,-351.364 573.472,-351.027 575.899,-350.735 578.385,-350.491 580.918,-350.295 583.488,-350.148 586.085,-350.049 588.699,-350 591.318,-350 593.931,-350.049"/>
<text text-anchor="middle" x="590.008" y="-362.4" font-family="Times,serif" font-size="14.00" fill="#101010">brokers</text>
</g>
<!-- brokeraggregator -->
<g id="node24" class="node"><title>brokeraggregator</title>
<polygon fill="#cc11cc" fill-opacity="0.133333" stroke="#cc11cc" stroke-opacity="0.133333" points="595.555,-276.049 599.228,-276.148 602.863,-276.295 606.445,-276.491 609.959,-276.735 613.392,-277.027 616.73,-277.364 619.961,-277.748 623.071,-278.176 626.049,-278.647 628.884,-279.161 631.568,-279.715 634.089,-280.308 636.442,-280.939 638.618,-281.605 640.613,-282.306 642.419,-283.039 644.035,-283.801 645.457,-284.592 646.683,-285.408 647.713,-286.248 648.547,-287.109 649.185,-287.989 649.63,-288.886 649.885,-289.797 649.954,-290.719 649.84,-291.65 649.55,-292.587 649.089,-293.529 648.464,-294.471 647.681,-295.413 646.748,-296.35 645.671,-297.281 644.46,-298.203 643.122,-299.114 641.665,-300.011 640.097,-300.891 638.427,-301.752 636.662,-302.592 634.81,-303.408 632.88,-304.199 630.878,-304.961 628.811,-305.694 626.686,-306.395 624.509,-307.061 622.287,-307.692 620.026,-308.285 617.729,-308.839 615.402,-309.353 613.049,-309.824 610.674,-310.252 608.281,-310.636 605.872,-310.973 603.451,-311.265 601.02,-311.509 598.581,-311.705 596.135,-311.852 593.686,-311.951 591.235,-312 588.782,-312 586.33,-311.951 583.881,-311.852 581.436,-311.705 578.997,-311.509 576.565,-311.265 574.144,-310.973 571.736,-310.636 569.342,-310.252 566.968,-309.824 564.615,-309.353 562.288,-308.839 559.991,-308.285 557.729,-307.692 555.507,-307.061 553.331,-306.395 551.206,-305.694 549.139,-304.961 547.137,-304.199 545.206,-303.408 543.355,-302.592 541.59,-301.752 539.919,-300.891 538.352,-300.011 536.895,-299.114 535.556,-298.203 534.345,-297.281 533.269,-296.35 532.336,-295.413 531.553,-294.471 530.927,-293.529 530.466,-292.587 530.176,-291.65 530.063,-290.719 530.132,-289.797 530.387,-288.886 530.832,-287.989 531.47,-287.109 532.304,-286.248 533.333,-285.408 534.559,-284.592 535.981,-283.801 537.597,-283.039 539.404,-282.306 541.398,-281.605 543.575,-280.939 545.927,-280.308 548.449,-279.715 551.132,-279.161 553.968,-278.647 556.946,-278.176 560.056,-277.748 563.286,-277.364 566.624,-277.027 570.058,-276.735 573.572,-276.491 577.154,-276.295 580.789,-276.148 584.461,-276.049 588.157,-276 591.86,-276 595.555,-276.049"/>
<text text-anchor="middle" x="590.008" y="-288.4" font-family="Times,serif" font-size="14.00" fill="#101010">aggregation</text>
</g>
<!-- broker&#45;&gt;brokeraggregator -->
<g id="edge22" class="edge"><title>broker&#45;&gt;brokeraggregator</title>
<path fill="none" stroke="black" d="M590.008,-349.937C590.008,-338.626 590.008,-323.828 590.008,-312.441"/>
</g>
<!-- brokeraggregator&#45;&gt;trader -->
<g id="edge24" class="edge"><title>brokeraggregator&#45;&gt;trader</title>
<path fill="none" stroke="black" d="M580.483,-265.867C576.041,-253.214 570.772,-238.206 566.353,-225.618"/>
<polygon fill="black" stroke="black" points="577.341,-267.483 583.956,-275.759 583.946,-265.164 577.341,-267.483"/>
<polygon fill="black" stroke="black" points="569.638,-224.408 563.023,-216.132 563.033,-226.727 569.638,-224.408"/>
</g>
<!-- trader&#45;&gt;observer -->
<g id="edge42" class="edge"><title>trader&#45;&gt;observer</title>
<path fill="none" stroke="#aaaaaa" stroke-dasharray="1,5" d="M533.981,-179.833C528.934,-176.772 523.463,-173.944 518.008,-172 451.303,-148.226 242.477,-133.049 152.239,-127.441"/>
<polygon fill="#aaaaaa" stroke="#aaaaaa" points="152.289,-123.938 142.094,-126.82 151.861,-130.925 152.289,-123.938"/>
</g>
</g>
</svg>
